<svg xmlns="http://www.w3.org/2000/svg" width="400" height="400" viewBox="0 0 400 400" role="img" aria-label="RentBond logo"><title>RentBond — partitioned deposit mark</title><g transform="translate(0 0)"><path fill="#DED9D3" d="M88 0H168Q184 0 184 16V72C184 136 264 142 264 216C264 290 184 300 184 368V384Q184 400 168 400H88C39.4 400 0 360.6 0 312V88C0 39.4 39.4 0 88 0Z"/><path fill="#D8CDAF" d="M224 0H312C360.6 0 400 39.4 400 88V312C400 360.6 360.6 400 312 400H224Q208 400 208 384V368C208 310 292 298 292 216C292 134 208 125 208 72V16Q208 0 224 0Z"/></g></svg>